<svg width="24" height="24" viewBox="0 0 24 24" fill="none" xmlns="http://www.w3.org/2000/svg">
<path fill-rule="evenodd" clip-rule="evenodd" d="M18.0341 12.6995C18.0563 10.9855 18.9599 9.40237 20.4283 8.50465C19.4977 7.18308 17.995 6.37521 16.3733 6.32476C14.6672 6.14668 13.0132 7.33993 12.1438 7.33993C11.2576 7.33993 9.919 6.34244 8.47757 6.37193C6.58102 6.43286 4.85579 7.47911 3.93309 9.12788C1.96814 12.5108 3.43381 17.4825 5.31606 20.217C6.25779 21.556 7.3584 23.0517 8.79853 22.9986C10.2078 22.9405 10.7341 22.105 12.4352 22.105C14.1205 22.105 14.6143 22.9986 16.0837 22.9649C17.5958 22.9405 18.5486 21.6199 19.4573 20.2683C20.1339 19.3142 20.6546 18.2597 21 17.1439C19.204 16.3886 18.0362 14.6386 18.0341 12.6995Z" fill="white"/>
<path fill-rule="evenodd" clip-rule="evenodd" d="M15.2555 4.52656C16.08 3.54232 16.4863 2.27725 16.3879 1C15.1282 1.13156 13.9646 1.73022 13.129 2.6767C12.3038 3.61052 11.8858 4.83222 11.967 6.07269C13.2435 6.08576 14.4556 5.5159 15.2555 4.52656Z" fill="white"/>
</svg>
