<svg width="16" height="16" viewBox="0 0 16 16" fill="none" xmlns="http://www.w3.org/2000/svg">
<path d="M1.2666 13.986L2.23918 11.0682C1.39861 9.82503 1.09453 8.3528 1.38347 6.92527C1.67242 5.49774 2.53474 4.21205 3.81009 3.30726C5.08544 2.40246 6.68705 1.94013 8.31711 2.00622C9.94717 2.07231 11.4948 2.66233 12.6722 3.66658C13.8495 4.67082 14.5766 6.02095 14.7181 7.46593C14.8597 8.91092 14.4061 10.3524 13.4417 11.5224C12.4773 12.6924 11.0677 13.5113 9.475 13.8269C7.88232 14.1424 6.21493 13.9331 4.78284 13.2378L1.2666 13.986" stroke="#A5AAB4" stroke-linecap="round" stroke-linejoin="round"/>
<path d="M7.99902 8.00098V8.00814" stroke="#A5AAB4" stroke-width="1.33333" stroke-linecap="round" stroke-linejoin="round"/>
<path d="M5.00684 8.00098V8.00814" stroke="#A5AAB4" stroke-width="1.33333" stroke-linecap="round" stroke-linejoin="round"/>
<path d="M10.9922 8.00098V8.00814" stroke="#A5AAB4" stroke-width="1.33333" stroke-linecap="round" stroke-linejoin="round"/>
</svg>
