<svg width="16" height="16" viewBox="0 0 16 16" fill="none" xmlns="http://www.w3.org/2000/svg">
<path d="M8.00023 14.3999L1.99337 8.8186C1.64628 8.44954 1.21647 8.017 1.0397 7.54568C0.862924 7.07435 0.782466 6.57346 0.802918 6.07161C0.844224 5.05808 1.29405 4.10217 2.05344 3.41417C2.81282 2.72616 3.81957 2.36242 4.8522 2.40296C5.88483 2.4435 6.85876 3.35666 7.55973 4.102C7.69012 4.18751 7.84342 4.41644 8.00023 4.41644C8.15705 4.41644 8.31035 4.18751 8.44074 4.102C9.14171 3.35666 10.1156 2.4435 11.1483 2.40296C12.1809 2.36242 13.1876 2.72616 13.947 3.41417C14.7064 4.10217 15.1562 5.05808 15.1975 6.07161C15.2389 7.08514 14.7081 8.07326 14.0071 8.8186L8.00023 14.3999Z" stroke="#A5AAB4" stroke-linecap="round" stroke-linejoin="round"/>
</svg>
