<svg width="24" height="24" viewBox="0 0 24 24" fill="none" xmlns="http://www.w3.org/2000/svg">
<path fill-rule="evenodd" clip-rule="evenodd" d="M2.40042 1.33996C2.14821 1.60362 2 2.01195 2 2.54183V21.4586C2 21.9885 2.14821 22.3968 2.40042 22.6605L2.46455 22.7221L13.1935 12.1252V11.8752L2.46455 1.27832L2.40042 1.33996Z" fill="#00D7FE"/>
<mask id="mask0_28_1398" style="mask-type:alpha" maskUnits="userSpaceOnUse" x="13" y="8" width="9" height="8">
<path d="M16.7685 15.6588L13.1934 12.1251V11.8752L16.7702 8.34229L21.0881 10.7649C22.2981 11.4446 22.2981 12.5557 21.0881 13.2345L16.8508 15.6126L16.7685 15.6588Z" fill="white"/>
</mask>
<g mask="url(#mask0_28_1398)">
<path fill-rule="evenodd" clip-rule="evenodd" d="M16.7705 15.6588L13.1953 12.1251V11.8752L16.7722 8.34229L21.0901 10.7649C22.3 11.4446 22.3 12.5557 21.0901 13.2345L16.8528 15.6126L16.7705 15.6588Z" fill="url(#paint0_linear_28_1398)"/>
</g>
<mask id="mask1_28_1398" style="mask-type:alpha" maskUnits="userSpaceOnUse" x="2" y="12" width="15" height="12">
<path d="M16.8558 15.613L13.1983 12.0005L2.40527 22.6607C2.80482 23.0776 3.46352 23.129 4.20541 22.713L16.8558 15.613Z" fill="white"/>
</mask>
<g mask="url(#mask1_28_1398)">
<path fill-rule="evenodd" clip-rule="evenodd" d="M16.8587 15.613L13.2012 12.0005L2.4082 22.6607C2.80775 23.0776 3.46645 23.129 4.20834 22.713L16.8587 15.613Z" fill="url(#paint1_linear_28_1398)"/>
</g>
<mask id="mask2_28_1398" style="mask-type:alpha" maskUnits="userSpaceOnUse" x="2" y="1" width="15" height="11">
<path d="M16.8558 8.38743L4.20541 1.28744C3.46352 0.871408 2.80482 0.92277 2.40527 1.33966L13.1983 11.9999L16.8558 8.38743Z" fill="white"/>
</mask>
<g mask="url(#mask2_28_1398)">
<path fill-rule="evenodd" clip-rule="evenodd" d="M16.8587 8.38743L4.20834 1.28744C3.46645 0.871408 2.80775 0.92277 2.4082 1.33966L13.2012 11.9999L16.8587 8.38743Z" fill="url(#paint2_linear_28_1398)"/>
</g>
<defs>
<linearGradient id="paint0_linear_28_1398" x1="20.303" y1="12.0004" x2="13.1953" y2="12.0004" gradientUnits="userSpaceOnUse">
<stop stop-color="#FFBC00"/>
<stop offset="1" stop-color="#FFDA03"/>
</linearGradient>
<linearGradient id="paint1_linear_28_1398" x1="14.871" y1="15.3996" x2="5.68742" y2="23.0637" gradientUnits="userSpaceOnUse">
<stop stop-color="#E22652"/>
<stop offset="1" stop-color="#FF3A44"/>
</linearGradient>
<linearGradient id="paint2_linear_28_1398" x1="4.04251" y1="2.623" x2="10.1606" y2="8.0697" gradientUnits="userSpaceOnUse">
<stop stop-color="#0ED574"/>
<stop offset="1" stop-color="#07F076"/>
</linearGradient>
</defs>
</svg>
