<svg width="40" height="40" viewBox="0 0 40 40" fill="none" xmlns="http://www.w3.org/2000/svg">
<path fill-rule="evenodd" clip-rule="evenodd" d="M36.9976 22.8922C37.0647 18.7563 35.7253 14.9886 34.5473 12.6714C34.1766 11.9416 33.0593 12.1366 32.9935 12.9529C32.7932 15.4574 31.5946 15.9625 30.4683 15.7403C29.3484 15.5194 29.2593 14.1167 29.2593 14.1167C27.6383 6.11364 22.6512 2.46989 18.8098 1.0762C17.9444 0.761034 17.0222 1.46757 17.1061 2.38593C17.4278 5.91602 16.2756 9.17356 14.8496 10.9819C14.5551 11.3797 14.2206 11.7078 13.8499 11.9661C13.7298 12.0539 13.6096 12.1444 13.4882 12.2089C13.4559 12.2257 13.4198 12.2348 13.3862 12.2503C13.2467 12.3174 13.1059 12.3885 12.9677 12.4208L12.969 12.3962C12.6331 12.497 12.2844 12.5603 11.9046 12.5306C10.4632 12.4117 9.89742 11.1989 9.72692 9.8323C9.57451 8.61299 7.99223 8.26941 7.34253 9.31306C5.36243 12.4996 3 17.7049 3 24.4215C3 32.546 10.4192 39.1308 19.5706 39.1308C27.46 39.1308 34.5938 35.097 36.4125 28.0304C36.4125 28.0304 36.4305 27.9852 36.4383 27.9451C36.459 27.8612 36.4783 27.7811 36.4783 27.7811C37.0441 25.9818 36.9976 22.8922 36.9976 22.8922Z" fill="#FD7126"/>
<path fill-rule="evenodd" clip-rule="evenodd" d="M24.2708 22.8822L20.4694 19.1997C19.9683 18.7153 19.1726 18.7153 18.6715 19.1997L14.8391 22.9106C12.3617 25.3105 11.7831 29.2229 13.7942 32.0245C15.0535 33.7799 17.1047 34.9811 19.5705 34.9811C21.7624 34.9811 23.6262 34.0305 24.8972 32.589C27.3604 29.7938 26.9471 25.4733 24.2708 22.8822Z" fill="#EFE1AC"/>
</svg>
