<svg width="20" height="20" viewBox="0 0 20 20" fill="none" xmlns="http://www.w3.org/2000/svg">
<path fill-rule="evenodd" clip-rule="evenodd" d="M16.9895 4.07183C17.2824 3.77894 17.2824 3.30407 16.9895 3.01117C16.6966 2.71828 16.2218 2.71828 15.9289 3.01117L10.0006 8.93945L4.07232 3.01117C3.77943 2.71828 3.30456 2.71828 3.01166 3.01117C2.71877 3.30407 2.71877 3.77894 3.01166 4.07183L8.93993 10.0001L3.01166 15.9284C2.71877 16.2213 2.71877 16.6961 3.01166 16.989C3.30456 17.2819 3.77943 17.2819 4.07232 16.989L10.0006 11.0608L15.9289 16.989C16.2218 17.2819 16.6966 17.2819 16.9895 16.989C17.2824 16.6961 17.2824 16.2213 16.9895 15.9284L11.0613 10.0001L16.9895 4.07183Z" fill="#606872"/>
</svg>
