<svg width="38" height="32" viewBox="0 0 38 32" fill="none" xmlns="http://www.w3.org/2000/svg">
<path d="M9.65441 5.77534C1.69081 10.288 1.4696 18.2738 2.35444 21.7025L10.3181 22.3661L14.9635 17.0571C14.7423 16.2828 13.7026 14.5353 11.3135 13.7389C8.92446 12.9426 10.3181 10.5314 11.3135 9.42531C12.0878 8.65107 13.9813 7.4173 14.3131 7.08548C14.4188 6.97974 14.629 6.96754 14.7781 6.77721C15.2906 6.12292 15.5851 4.63034 14.2999 4.11626C12.9726 3.58535 10.6499 5.0011 9.65441 5.77534Z" fill="#D7E1F4"/>
<circle cx="8.96814" cy="20.9681" r="6.96814" fill="#D7E1F4"/>
<path d="M28.922 5.77534C20.9584 10.288 20.7372 18.2738 21.622 21.7025L29.5857 22.3661L34.2311 17.0571C34.0099 16.2828 32.9702 14.5353 30.5811 13.7389C28.192 12.9426 29.5857 10.5314 30.5811 9.42531C31.3554 8.65107 33.2489 7.4173 33.5807 7.08548C33.6864 6.97974 33.8966 6.96754 34.0457 6.77721C34.5581 6.12292 34.8527 4.63034 33.5675 4.11626C32.2402 3.58535 29.9174 5.0011 28.922 5.77534Z" fill="#D7E1F4"/>
<circle cx="28.2584" cy="20.7072" r="6.96814" fill="#D7E1F4"/>
</svg>
