<svg width="24" height="24" viewBox="0 0 24 24" fill="none" xmlns="http://www.w3.org/2000/svg">
<path d="M19.6687 16.8068C19.3813 17.4706 19.0412 18.0816 18.6471 18.6434C18.11 19.4092 17.6702 19.9393 17.3313 20.2337C16.8058 20.7169 16.2429 20.9644 15.6401 20.9784C15.2073 20.9784 14.6854 20.8553 14.0779 20.6055C13.4684 20.3568 12.9083 20.2337 12.3961 20.2337C11.859 20.2337 11.2829 20.3568 10.6667 20.6055C10.0496 20.8553 9.5524 20.9855 9.1723 20.9984C8.59422 21.023 8.01803 20.7685 7.44288 20.2337C7.0758 19.9135 6.61664 19.3647 6.0666 18.5871C5.47644 17.7567 4.99125 16.7939 4.61115 15.6961C4.20407 14.5104 4 13.3622 4 12.2507C4 10.9773 4.27514 9.87913 4.82624 8.95883C5.25936 8.21962 5.83556 7.6365 6.55671 7.20842C7.27787 6.78035 8.05708 6.56221 8.89622 6.54825C9.35537 6.54825 9.95749 6.69028 10.7057 6.96941C11.4519 7.24947 11.931 7.3915 12.141 7.3915C12.2981 7.3915 12.8303 7.22543 13.7325 6.89435C14.5857 6.58731 15.3058 6.46018 15.8957 6.51025C17.4943 6.63926 18.6952 7.26941 19.4939 8.40468C18.0643 9.27092 17.3571 10.4842 17.3711 12.0406C17.384 13.2529 17.8238 14.2618 18.6882 15.0628C19.0799 15.4346 19.5174 15.7219 20.0041 15.926C19.8985 16.2321 19.7871 16.5253 19.6687 16.8068ZM16.0025 2.38011C16.0025 3.33033 15.6553 4.21754 14.9634 5.03874C14.1283 6.01498 13.1183 6.5791 12.023 6.49008C12.0091 6.37609 12.001 6.25611 12.001 6.13003C12.001 5.21782 12.3981 4.24158 13.1033 3.44337C13.4554 3.03922 13.9032 2.70318 14.4462 2.43511C14.988 2.17104 15.5005 2.02501 15.9825 2C15.9966 2.12703 16.0025 2.25407 16.0025 2.3801V2.38011Z" fill="#555555"/>
</svg>
