<svg width="230" height="180" viewBox="0 0 230 180" fill="none" xmlns="http://www.w3.org/2000/svg">
<path d="M160 16C160 7.16344 167.163 0 176 0H214C222.837 0 230 7.16344 230 16V180H160V16Z" fill="url(#paint0_linear_360_5915)"/>
<path d="M80 51C80 42.1634 87.1634 35 96 35H134C142.837 35 150 42.1634 150 51V180H80V51Z" fill="url(#paint1_linear_360_5915)"/>
<path d="M0 142C0 133.163 7.16344 126 16 126H54C62.8366 126 70 133.163 70 142V180H0V142Z" fill="url(#paint2_linear_360_5915)"/>
<defs>
<linearGradient id="paint0_linear_360_5915" x1="195" y1="0" x2="195" y2="180" gradientUnits="userSpaceOnUse">
<stop stop-color="#AFC6FB"/>
<stop offset="1" stop-color="#CED7EB" stop-opacity="0.26"/>
</linearGradient>
<linearGradient id="paint1_linear_360_5915" x1="115" y1="35" x2="115" y2="180" gradientUnits="userSpaceOnUse">
<stop stop-color="#AFC6FB"/>
<stop offset="1" stop-color="#CED7EB" stop-opacity="0.26"/>
</linearGradient>
<linearGradient id="paint2_linear_360_5915" x1="35" y1="126" x2="35" y2="180" gradientUnits="userSpaceOnUse">
<stop stop-color="#AFC6FB"/>
<stop offset="1" stop-color="#CED7EB" stop-opacity="0.26"/>
</linearGradient>
</defs>
</svg>
