<svg width="481" height="289" viewBox="0 0 481 289" fill="none" xmlns="http://www.w3.org/2000/svg">
<path d="M334 16C334 7.16344 341.163 0 350 0H465C473.837 0 481 7.16344 481 16V289H334V16Z" fill="url(#paint0_linear_362_13991)"/>
<path d="M167 73C167 64.1634 174.163 57 183 57H298C306.837 57 314 64.1634 314 73V289H167V73Z" fill="url(#paint1_linear_362_13991)"/>
<path d="M0 217C0 208.163 7.16344 201 16 201H131C139.837 201 147 208.163 147 217V289H0V217Z" fill="url(#paint2_linear_362_13991)"/>
<defs>
<linearGradient id="paint0_linear_362_13991" x1="407.5" y1="0" x2="407.5" y2="289" gradientUnits="userSpaceOnUse">
<stop stop-color="#AFC6FB"/>
<stop offset="1" stop-color="#CED7EB" stop-opacity="0.26"/>
</linearGradient>
<linearGradient id="paint1_linear_362_13991" x1="240.5" y1="57" x2="240.5" y2="289" gradientUnits="userSpaceOnUse">
<stop stop-color="#AFC6FB"/>
<stop offset="1" stop-color="#CED7EB" stop-opacity="0.26"/>
</linearGradient>
<linearGradient id="paint2_linear_362_13991" x1="73.5" y1="201" x2="73.5" y2="289" gradientUnits="userSpaceOnUse">
<stop stop-color="#AFC6FB"/>
<stop offset="1" stop-color="#CED7EB" stop-opacity="0.26"/>
</linearGradient>
</defs>
</svg>
